<?xml version="1.0" encoding="UTF-8" standalone="no"?>
<!DOCTYPE svg PUBLIC "-//W3C//DTD SVG 1.1//EN" "http://www.w3.org/Graphics/SVG/1.1/DTD/svg11.dtd">
<svg version="1.1" xmlns="http://www.w3.org/2000/svg" xmlns:xlink="http://www.w3.org/1999/xlink" preserveAspectRatio="xMidYMid meet" viewBox="0 0 640 640" width="640" height="640"><defs><path d="M53.97 47.56L73.97 47.56L73.97 67.56L53.97 67.56L53.97 47.56Z" id="a1vptALU9"></path><path d="M113.72 47.56L133.72 47.56L133.72 67.56L113.72 67.56L113.72 47.56Z" id="b6OhR1sqjh"></path><path d="M73.97 122.95C73.97 128.47 69.49 132.95 63.97 132.95C58.46 132.95 53.97 128.47 53.97 122.95C53.97 117.43 58.46 112.95 63.97 112.95C69.49 112.95 73.97 117.43 73.97 122.95Z" id="apaDmaEII"></path><path d="M128.72 119.87L133.72 129.87L123.72 129.87L113.72 129.87L118.72 119.87L123.72 109.87L128.72 119.87Z" id="c154zZCmR0"></path></defs><g><g><g><g><use xlink:href="#a1vptALU9" opacity="1" fill-opacity="0" stroke="#f9a10f" stroke-width="2" stroke-opacity="1"></use></g></g><g><g><use xlink:href="#b6OhR1sqjh" opacity="1" fill-opacity="0" stroke="#ef2222" stroke-width="2" stroke-opacity="1"></use></g></g><g><g><use xlink:href="#apaDmaEII" opacity="1" fill-opacity="0" stroke="#1dace1" stroke-width="2" stroke-opacity="1"></use></g></g><g><g><use xlink:href="#c154zZCmR0" opacity="1" fill-opacity="0" stroke="#2ee13b" stroke-width="2" stroke-opacity="1"></use></g></g></g></g></svg>